<?xml version="1.0" encoding="UTF-8" standalone="no"?><!DOCTYPE svg PUBLIC "-//W3C//DTD SVG 1.1//EN" "http://www.w3.org/Graphics/SVG/1.1/DTD/svg11.dtd"><!-- Generated by graphviz version 2.40.1 (20161225.0304)
 --><!-- Title: %0 Pages: 1 --><svg xmlns="http://www.w3.org/2000/svg" xmlns:xlink="http://www.w3.org/1999/xlink" width="306pt" height="332pt" viewBox="0.00 0.00 306.19 332.00">
<g id="graph0" class="graph" transform="scale(1 1) rotate(0) translate(4 328)">
<title>%0</title>
<polygon fill="#ffffff" stroke="transparent" points="-4,4 -4,-328 302.1869,-328 302.1869,4 -4,4"/>
<!-- Sentence -->
<g id="node1" class="node">
<title>Sentence</title>
<ellipse fill="none" stroke="#000000" cx="185.0934" cy="-306" rx="45.7848" ry="18"/>
<text text-anchor="start" x="159.8276" y="-302.8" font-family="Times,serif" font-weight="bold" font-size="14.00" fill="#000000">Sentence</text>
</g>
<!-- List -->
<g id="node2" class="node">
<title>List</title>
<ellipse fill="none" stroke="#000000" cx="113.0934" cy="-234" rx="27" ry="18"/>
<text text-anchor="start" x="102.2042" y="-230.8" font-family="Times,serif" font-weight="bold" font-size="14.00" fill="#000000">List</text>
</g>
<!-- Sentence&#45;&gt;List -->
<g id="edge1" class="edge">
<title>Sentence-&gt;List</title>
<path fill="none" stroke="#000000" d="M168.0304,-288.937C158.2593,-279.1659 145.8863,-266.7928 135.3574,-256.2639"/>
<polygon fill="#000000" stroke="#000000" points="137.6262,-253.583 128.0802,-248.9868 132.6764,-258.5327 137.6262,-253.583"/>
</g>
<!-- and -->
<g id="node3" class="node">
<title>and</title>
<ellipse fill="none" stroke="#0000ff" cx="185.0934" cy="-234" rx="27" ry="18"/>
<text text-anchor="middle" x="185.0934" y="-229.8" font-family="Times,serif" font-size="14.00" fill="#000000">and</text>
</g>
<!-- Sentence&#45;&gt;and -->
<g id="edge2" class="edge">
<title>Sentence-&gt;and</title>
<path fill="none" stroke="#000000" d="M185.0934,-287.8314C185.0934,-280.131 185.0934,-270.9743 185.0934,-262.4166"/>
<polygon fill="#000000" stroke="#000000" points="188.5935,-262.4132 185.0934,-252.4133 181.5935,-262.4133 188.5935,-262.4132"/>
</g>
<!-- Name -->
<g id="node4" class="node">
<title>Name</title>
<ellipse fill="none" stroke="#000000" cx="264.0934" cy="-234" rx="34.1871" ry="18"/>
<text text-anchor="start" x="247.3802" y="-230.8" font-family="Times,serif" font-weight="bold" font-size="14.00" fill="#000000">Name</text>
</g>
<!-- Sentence&#45;&gt;Name -->
<g id="edge3" class="edge">
<title>Sentence-&gt;Name</title>
<path fill="none" stroke="#000000" d="M203.4162,-289.3008C214.0821,-279.5799 227.6728,-267.1935 239.287,-256.6084"/>
<polygon fill="#000000" stroke="#000000" points="241.9183,-258.9458 246.9516,-249.6229 237.203,-253.7722 241.9183,-258.9458"/>
</g>
<!-- Name2 -->
<g id="node5" class="node">
<title>Name2</title>
<ellipse fill="none" stroke="#000000" cx="34.0934" cy="-162" rx="34.1871" ry="18"/>
<text text-anchor="start" x="17.3802" y="-158.8" font-family="Times,serif" font-weight="bold" font-size="14.00" fill="#000000">Name</text>
</g>
<!-- List&#45;&gt;Name2 -->
<g id="edge4" class="edge">
<title>List-&gt;Name2</title>
<path fill="none" stroke="#000000" d="M97.1066,-219.4297C86.1296,-209.4253 71.3435,-195.9494 58.8531,-184.5657"/>
<polygon fill="#000000" stroke="#000000" points="61.1758,-181.9472 51.4273,-177.7979 56.4606,-187.1208 61.1758,-181.9472"/>
</g>
<!-- dot1 -->
<g id="node6" class="node">
<title>dot1</title>
<ellipse fill="none" stroke="#0000ff" cx="113.0934" cy="-162" rx="27" ry="18"/>
<text text-anchor="middle" x="113.0934" y="-157.8" font-family="Times,serif" font-size="14.00" fill="#000000">,</text>
</g>
<!-- List&#45;&gt;dot1 -->
<g id="edge5" class="edge">
<title>List-&gt;dot1</title>
<path fill="none" stroke="#000000" d="M113.0934,-215.8314C113.0934,-208.131 113.0934,-198.9743 113.0934,-190.4166"/>
<polygon fill="#000000" stroke="#000000" points="116.5935,-190.4132 113.0934,-180.4133 109.5935,-190.4133 116.5935,-190.4132"/>
</g>
<!-- List2 -->
<g id="node7" class="node">
<title>List2</title>
<ellipse fill="none" stroke="#000000" cx="185.0934" cy="-162" rx="27" ry="18"/>
<text text-anchor="start" x="174.2042" y="-158.8" font-family="Times,serif" font-weight="bold" font-size="14.00" fill="#000000">List</text>
</g>
<!-- List&#45;&gt;List2 -->
<g id="edge6" class="edge">
<title>List-&gt;List2</title>
<path fill="none" stroke="#000000" d="M128.3628,-218.7307C138.2904,-208.803 151.4087,-195.6847 162.5298,-184.5637"/>
<polygon fill="#000000" stroke="#000000" points="165.2499,-186.7933 169.8461,-177.2473 160.3001,-181.8436 165.2499,-186.7933"/>
</g>
<!-- harry -->
<g id="node11" class="node">
<title>harry</title>
<ellipse fill="none" stroke="#0000ff" cx="264.0934" cy="-162" rx="31.3198" ry="18"/>
<text text-anchor="middle" x="264.0934" y="-157.8" font-family="Times,serif" font-size="14.00" fill="#000000">harry</text>
</g>
<!-- Name&#45;&gt;harry -->
<g id="edge7" class="edge">
<title>Name-&gt;harry</title>
<path fill="none" stroke="#000000" d="M264.0934,-215.8314C264.0934,-208.131 264.0934,-198.9743 264.0934,-190.4166"/>
<polygon fill="#000000" stroke="#000000" points="267.5935,-190.4132 264.0934,-180.4133 260.5935,-190.4133 267.5935,-190.4132"/>
</g>
<!-- tom -->
<g id="node9" class="node">
<title>tom</title>
<ellipse fill="none" stroke="#0000ff" cx="34.0934" cy="-90" rx="27" ry="18"/>
<text text-anchor="middle" x="34.0934" y="-85.8" font-family="Times,serif" font-size="14.00" fill="#000000">tom</text>
</g>
<!-- Name2&#45;&gt;tom -->
<g id="edge8" class="edge">
<title>Name2-&gt;tom</title>
<path fill="none" stroke="#000000" d="M34.0934,-143.8314C34.0934,-136.131 34.0934,-126.9743 34.0934,-118.4166"/>
<polygon fill="#000000" stroke="#000000" points="37.5935,-118.4132 34.0934,-108.4133 30.5935,-118.4133 37.5935,-118.4132"/>
</g>
<!-- Name3 -->
<g id="node8" class="node">
<title>Name3</title>
<ellipse fill="none" stroke="#000000" cx="185.0934" cy="-90" rx="34.1871" ry="18"/>
<text text-anchor="start" x="168.3802" y="-86.8" font-family="Times,serif" font-weight="bold" font-size="14.00" fill="#000000">Name</text>
</g>
<!-- List2&#45;&gt;Name3 -->
<g id="edge9" class="edge">
<title>List2-&gt;Name3</title>
<path fill="none" stroke="#000000" d="M185.0934,-143.8314C185.0934,-136.131 185.0934,-126.9743 185.0934,-118.4166"/>
<polygon fill="#000000" stroke="#000000" points="188.5935,-118.4132 185.0934,-108.4133 181.5935,-118.4133 188.5935,-118.4132"/>
</g>
<!-- dick -->
<g id="node10" class="node">
<title>dick</title>
<ellipse fill="none" stroke="#0000ff" cx="185.0934" cy="-18" rx="27.8286" ry="18"/>
<text text-anchor="middle" x="185.0934" y="-13.8" font-family="Times,serif" font-size="14.00" fill="#000000">dick</text>
</g>
<!-- Name3&#45;&gt;dick -->
<g id="edge10" class="edge">
<title>Name3-&gt;dick</title>
<path fill="none" stroke="#000000" d="M185.0934,-71.8314C185.0934,-64.131 185.0934,-54.9743 185.0934,-46.4166"/>
<polygon fill="#000000" stroke="#000000" points="188.5935,-46.4132 185.0934,-36.4133 181.5935,-46.4133 188.5935,-46.4132"/>
</g>
</g>
</svg>