<svg width="816" height="851" viewBox="0 0 612 638.25" xmlns="http://www.w3.org/2000/svg" xmlns:xlink="http://www.w3.org/1999/xlink">
<g id="graph0" class="graph" transform="translate(139.8300018310547,589.125) scale(1)">
<polygon fill="white" stroke="transparent" points="-4,4 -4,-544 336.34,-544 336.34,4 -4,4"/>
<!-- abc -->
<g id="node1" class="node">
<title>Sentence</title>
<ellipse fill="none" stroke="rgb(0, 0, 0)" cx="187.17" cy="-522" rx="47.52" ry="18"/>
<text text-anchor="start" x="160.73" y="-518.8" font-family="Times,serif" font-size="14.00" font-weight="bold">Sentence</text>
</g>
<!-- a -->
<g id="node2" class="node">
<title>List</title>
<ellipse fill="none" stroke="black" cx="151.17" cy="-450" rx="27.27" ry="18"/>
<text text-anchor="start" x="139.5" y="-446.8" font-family="Times,serif" font-size="14.00" font-weight="bold">List</text>
</g>
<!-- Senten -->
<g id="edge1" class="edge">
<title>Sentence-&gt;List</title>
<path fill="none" stroke="black" d="M178.45,-504.05C174.19,-495.77 168.97,-485.62 164.24,-476.42"/>
<polygon fill="black" stroke="black" points="167.24,-474.6 159.56,-467.31 161.02,-477.8 167.24,-474.6"/>
</g>
<!-- E -->
<!-- Sentence&#45;&gt;nd -->
<g id="edge2" class="edge">
<title>Sentence-&gt;End</title>
<path fill="none" stroke="black" d="M203.73,-505.12C213.85,-495.41 226.92,-482.89 237.93,-472.33"/>
<polygon fill="black" stroke="black" points="240.36,-474.84 245.16,-465.39 235.52,-469.79 240.36,-474.84"/>
</g>
<g id="node3" class="node">
<title>End</title>
<ellipse fill="none" stroke="black" cx="260.17" cy="-450" rx="28.44" ry="18"/>
<text text-anchor="start" x="247.71" y="-446.8" font-family="Times,serif" font-weight="bold" font-size="14.00">End</text>
</g>
<!-- Name -->
<g id="node4" class="node">
<title>Name</title>
<ellipse fill="none" stroke="black" cx="35.17" cy="-378" rx="35.34" ry="18"/>
<text text-anchor="start" x="17.68" y="-374.8" font-family="Times,serif" font-size="14.00" font-weight="bold">Name</text>
</g>
<!-- do -->
<!-- dot1 -->
<!-- dot1 -->
<g id="node5" class="node">
<title>dot1</title>
<ellipse fill="none" stroke="rgb(0, 0, 255)" cx="115.17" cy="-378" rx="27" ry="18"/>
<text text-anchor="middle" x="115.17" y="-373.8" font-family="Times,serif" font-size="14.00">,</text>
</g><g id="edge3" class="edge">
<title>List-&gt;Name</title>
<path fill="none" stroke="black" d="M131.75,-437.28C113.78,-426.43 86.74,-410.12 65.85,-397.51"/>
<polygon fill="black" stroke="black" points="67.39,-394.36 57.02,-392.19 63.78,-400.35 67.39,-394.36"/>
</g>
<!-- List2 -->
<g id="edge4" class="edge">
<title>List-&gt;dot1</title>
<path fill="none" stroke="black" d="M142.82,-432.76C138.46,-424.28 133.02,-413.71 128.13,-404.2"/>
<polygon fill="black" stroke="black" points="131.16,-402.44 123.47,-395.15 124.93,-405.64 131.16,-402.44"/>
</g>

<g id="node6" class="node">
<title>List2</title>
<ellipse fill="none" stroke="black" cx="187.17" cy="-378" rx="27.27" ry="18"/>
<text text-anchor="start" x="175.5" y="-374.8" font-family="Times,serif" font-weight="bold" font-size="14.00">List</text>
</g>
<!-- LIst -->
<g id="edge5" class="edge">
<title>List-&gt;List2</title>
<path fill="none" stroke="black" d="M159.52,-432.76C163.88,-424.28 169.32,-413.71 174.21,-404.2"/>
<polygon fill="black" stroke="black" points="177.4,-405.64 178.87,-395.15 171.18,-402.44 177.4,-405.64"/>
</g>
<!-- Name2 -->
<g id="node7" class="node">
<title>Name2</title>
<ellipse fill="none" stroke="black" cx="119.17" cy="-306" rx="35.34" ry="18"/>
<text text-anchor="start" x="101.68" y="-302.8" font-family="Times,serif" font-weight="bold" font-size="14.00">Name</text>
</g>
<!-- dot2 -->
<!-- dot2 -->
<g id="node8" class="node">
<title>dot2</title>
<ellipse fill="none" stroke="rgb(0, 0, 0)" cx="177.17" cy="-234" rx="27" ry="18"/>
<text text-anchor="middle" x="177.17" y="-229.8" font-family="Times,serif" font-size="14.00">,</text>
</g><g id="edge6" class="edge">
<title>List2-&gt;Name2</title>
<path fill="none" stroke="black" d="M173.08,-362.5C163.94,-353.09 151.83,-340.63 141.41,-329.9"/>
<polygon fill="black" stroke="black" points="143.66,-327.19 134.18,-322.46 138.64,-332.07 143.66,-327.19"/>
</g><g id="edge12" class="edge">
<title>End-&gt;Temp</title>
<path fill="none" stroke="black" d="M268.63,-432.69C287.53,-393.99 329.34,-294.04 301.17,-216 296.47,-202.99 287.04,-190.92 278.11,-181.6"/>
<polygon fill="black" stroke="black" points="280.43,-178.97 270.85,-174.45 275.52,-183.96 280.43,-178.97"/>
</g>
<!-- List3 -->
<!-- List3 -->

<g id="node9" class="node">
<title>List3</title>
<ellipse fill="none" stroke="black" cx="251.17" cy="-306" rx="27.27" ry="18"/>
<text text-anchor="start" x="239.5" y="-302.8" font-family="Times,serif" font-weight="bold" font-size="14.00">List</text>
</g>
<g id="edge7" class="edge">
<title>List2-&gt;dot2</title>
<path fill="none" stroke="black" d="M185.96,-359.87C184.26,-335.67 181.13,-291.21 179.1,-262.39"/>
<polygon fill="black" stroke="black" points="182.57,-261.92 178.38,-252.19 175.59,-262.41 182.57,-261.92"/>
</g><g id="edge15" class="edge">
<title>Name-&gt;tom</title>
<path fill="none" stroke="black" d="M35.17,-359.7C35.17,-351.98 35.17,-342.71 35.17,-334.11"/>
<polygon fill="black" stroke="black" points="38.67,-334.1 35.17,-324.1 31.67,-334.1 38.67,-334.1"/>
</g>
<!-- LIst2 -->
<g id="edge8" class="edge">
<title>List2-&gt;List3</title>
<path fill="none" stroke="black" d="M200.74,-362.15C209.48,-352.6 221,-339.99 230.83,-329.25"/>
<polygon fill="black" stroke="black" points="233.45,-331.57 237.62,-321.82 228.29,-326.84 233.45,-331.57"/>
</g>
<!-- List3&#45;&gt;Name -->

<!-- Name3 -->
<g id="node10" class="node">
<title>Name3</title>
<ellipse fill="none" stroke="black" cx="257.17" cy="-234" rx="35.34" ry="18"/>
<text text-anchor="start" x="239.68" y="-230.8" font-family="Times,serif" font-weight="bold" font-size="14.00">Name</text>
</g><!-- List3&#45;&gt;Name3 -->
<g id="edge9" class="edge">
<title>List3-&gt;Name3</title>
<path fill="none" stroke="black" d="M252.65,-287.7C253.31,-279.98 254.11,-270.71 254.85,-262.11"/>
<polygon fill="black" stroke="black" points="258.34,-262.37 255.7,-252.1 251.36,-261.77 258.34,-262.37"/>
</g><g id="edge11" class="edge">
<title>dot2-&gt;Temp</title>
<path fill="none" stroke="black" d="M192.97,-219.17C205.34,-208.35 222.66,-193.2 236.19,-181.36"/>
<polygon fill="black" stroke="black" points="238.82,-183.7 244.04,-174.49 234.21,-178.44 238.82,-183.7"/>
</g>
<!-- Teo -->
<!-- Name3&#45;&gt;Tem -->
<g id="edge16" class="edge">
<title>Name2-&gt;dick</title>
<path fill="none" stroke="black" d="M115.54,-288.05C113.87,-280.26 111.85,-270.82 109.97,-262.08"/>
<polygon fill="black" stroke="black" points="113.39,-261.32 107.87,-252.28 106.54,-262.79 113.39,-261.32"/>
</g>
<g id="edge10" class="edge">
<title>Name3-&gt;Temp</title>
<path fill="none" stroke="black" d="M257.17,-215.7C257.17,-207.98 257.17,-198.71 257.17,-190.11"/>
<polygon fill="black" stroke="black" points="260.67,-190.1 257.17,-180.1 253.67,-190.1 260.67,-190.1"/>
</g>
<g id="node11" class="node">
<title>Temp</title>
<ellipse fill="none" stroke="black" cx="257.17" cy="-162" rx="18" ry="18"/>
<text text-anchor="middle" x="257.17" y="-157.8" font-family="Times,serif" font-size="14.00"> </text>
</g>
<!-- do -->

<!-- and -->
<g id="node12" class="node">
<title>and</title>
<ellipse fill="none" stroke="rgb(0, 0, 255)" cx="217.17" cy="-90" rx="27" ry="18"/>
<text text-anchor="middle" x="217.17" y="-85.8" font-family="Times,serif" font-size="14.00">and</text>
</g>
<!-- Name4 -->
<!-- Temp&#45;&gt;4 -->
<g id="edge14" class="edge">
<title>Temp-&gt;Name4</title>
<path fill="none" stroke="black" d="M265.85,-145.81C270.72,-137.28 276.94,-126.4 282.54,-116.6"/>
<polygon fill="black" stroke="black" points="285.75,-118.05 287.67,-107.63 279.67,-114.57 285.75,-118.05"/>
</g>
<g id="node13" class="node">
<title>Name4</title>
<ellipse fill="none" stroke="black" cx="297.17" cy="-90" rx="35.34" ry="18"/>
<text text-anchor="start" x="279.68" y="-86.8" font-family="Times,serif" font-weight="bold" font-size="14.00">Name</text>
</g><g id="edge13" class="edge">
<title>Temp-&gt;and</title>
<path fill="none" stroke="black" d="M248.49,-145.81C243.49,-137.07 237.09,-125.87 231.38,-115.87"/>
<polygon fill="black" stroke="black" points="234.39,-114.08 226.39,-107.13 228.31,-117.55 234.39,-114.08"/>
</g>
<!-- Tem -->

<!-- to -->
<g id="node14" class="node">
<title>tom</title>
<ellipse fill="none" stroke="rgb(0, 0, 255)" cx="35.17" cy="-306" rx="27" ry="18"/>
<text text-anchor="middle" x="35.17" y="-301.8" font-family="Times,serif" font-size="14.00">tom</text>
</g>
<!-- d -->
<!-- dick -->
<!-- dick -->
<g id="node15" class="node">
<title>dick</title>
<ellipse fill="none" stroke="blue" cx="104.17" cy="-234" rx="27.83" ry="18"/>
<text text-anchor="middle" x="104.17" y="-229.8" font-family="Times,serif" font-size="14.00">dick</text>
</g>
<!-- harry -->


<!-- Name4&#45;&gt;harr -->
<g id="edge17" class="edge">
<title>Name4-&gt;harry</title>
<path fill="none" stroke="black" d="M297.17,-71.7C297.17,-63.98 297.17,-54.71 297.17,-46.11"/>
<polygon fill="black" stroke="black" points="300.67,-46.1 297.17,-36.1 293.67,-46.1 300.67,-46.1"/>
</g>
<g id="node16" class="node">
<title>harry</title>
<ellipse fill="none" stroke="blue" cx="297.17" cy="-18" rx="31.32" ry="18"/>
<text text-anchor="middle" x="297.17" y="-13.8" font-family="Times,serif" font-size="14.00">harry</text>
</g>
</g>
</svg>